<svg width="44" height="23" viewBox="0 0 44 23" fill="none" xmlns="http://www.w3.org/2000/svg">
<g clip-path="url(#clip0_2_622)">
<path fill-rule="evenodd" clip-rule="evenodd" d="M33.625 11.375C33.625 5.09336 28.3357 0 21.8125 0C15.2893 0 10 5.09336 10 11.375C10 17.0523 14.3189 21.7582 19.9668 22.6124V14.6641H16.9667V11.375H19.9668V8.86895C19.9668 6.01859 21.7308 4.44285 24.4287 4.44285C25.7212 4.44285 27.0733 4.66527 27.0733 4.66527V7.46484H25.583C24.1165 7.46484 23.6577 8.34133 23.6577 9.24219V11.375H26.9335L26.4104 14.6641H23.6582V22.6134C29.3061 21.7598 33.625 17.0539 33.625 11.375Z" fill="white"/>
</g>
<defs>
<clipPath id="clip0_2_622">
<rect width="24" height="23" fill="white" transform="translate(10)"/>
</clipPath>
</defs>
</svg>
