<svg width="44" height="23" viewBox="0 0 44 23" fill="none" xmlns="http://www.w3.org/2000/svg">
<g clip-path="url(#clip0_2_630)">
<path d="M26.7342 1.89566C28.0385 1.89941 29.2882 2.4 30.2104 3.2881C31.1327 4.17619 31.6525 5.37963 31.6564 6.63559V16.1144C31.6525 17.3704 31.1327 18.5738 30.2104 19.4619C29.2882 20.35 28.0385 20.8506 26.7342 20.8543H16.8908C15.5865 20.8506 14.3368 20.35 13.4146 19.4619C12.4923 18.5738 11.9725 17.3704 11.9686 16.1144V6.63559C11.9725 5.37963 12.4923 4.17619 13.4146 3.2881C14.3368 2.4 15.5865 1.89941 16.8908 1.89566H26.7342ZM26.7342 0H16.8908C13.1008 0 10 2.98594 10 6.63559V16.1144C10 19.7641 13.1008 22.75 16.8908 22.75H26.7342C30.5242 22.75 33.625 19.7641 33.625 16.1144V6.63559C33.625 2.98594 30.5242 0 26.7342 0Z" fill="white"/>
<path d="M28.2108 6.63574C27.9187 6.63574 27.6332 6.55235 27.3904 6.39611C27.1476 6.23988 26.9584 6.01781 26.8466 5.758C26.7348 5.49818 26.7056 5.21229 26.7626 4.93647C26.8195 4.66066 26.9602 4.4073 27.1667 4.20845C27.3732 4.0096 27.6363 3.87418 27.9227 3.81931C28.2091 3.76445 28.506 3.79261 28.7758 3.90023C29.0456 4.00784 29.2762 4.19009 29.4385 4.42392C29.6007 4.65774 29.6873 4.93265 29.6873 5.21387C29.6877 5.4007 29.6498 5.58578 29.5758 5.75847C29.5017 5.93116 29.393 6.08807 29.2558 6.22018C29.1186 6.35229 28.9556 6.45701 28.7763 6.52833C28.597 6.59964 28.4048 6.63614 28.2108 6.63574ZM21.8125 7.58332C22.5913 7.58332 23.3526 7.80571 24.0002 8.22236C24.6477 8.63901 25.1524 9.23122 25.4504 9.92408C25.7485 10.617 25.8264 11.3794 25.6745 12.1149C25.5226 12.8505 25.1476 13.5261 24.5969 14.0564C24.0462 14.5867 23.3445 14.9478 22.5807 15.0941C21.8169 15.2404 21.0251 15.1654 20.3056 14.8784C19.5861 14.5914 18.9711 14.1054 18.5384 13.4818C18.1058 12.8582 17.8748 12.1251 17.8748 11.3752C17.8759 10.3698 18.2912 9.40599 19.0294 8.69511C19.7676 7.98424 20.7685 7.5844 21.8125 7.58332ZM21.8125 5.68766C20.6444 5.68766 19.5024 6.02122 18.5312 6.64617C17.5599 7.27112 16.8029 8.15939 16.3558 9.19864C15.9088 10.2379 15.7918 11.3815 16.0197 12.4847C16.2476 13.588 16.8101 14.6014 17.6361 15.3968C18.4622 16.1922 19.5145 16.7339 20.6602 16.9534C21.8059 17.1728 22.9935 17.0602 24.0727 16.6297C25.1519 16.1992 26.0744 15.4703 26.7234 14.535C27.3724 13.5997 27.7187 12.5 27.7187 11.3752C27.7187 9.86674 27.0965 8.4201 25.9888 7.35349C24.8812 6.28687 23.3789 5.68766 21.8125 5.68766Z" fill="white"/>
</g>
<defs>
<clipPath id="clip0_2_630">
<rect width="24" height="23" fill="white" transform="translate(10)"/>
</clipPath>
</defs>
</svg>
