<svg width="45" height="24" viewBox="0 0 45 24" fill="none" xmlns="http://www.w3.org/2000/svg">
<g clip-path="url(#clip0_2_635)">
<path d="M22.3152 0C15.6869 0 10.3125 5.37201 10.3125 11.9973C10.3125 16.9087 13.2703 21.1292 17.498 22.9877C17.4659 22.1522 17.4927 21.1453 17.707 20.2348C17.9374 19.26 19.2502 13.6952 19.2502 13.6952C19.2502 13.6952 18.8644 12.9293 18.8644 11.7992C18.8644 10.021 19.8932 8.6927 21.1792 8.6927C22.2723 8.6927 22.7974 9.51216 22.7974 10.4923C22.7974 11.5903 22.0955 13.2292 21.7365 14.7503C21.4364 16.025 22.3741 17.0587 23.6333 17.0587C25.9053 17.0587 27.4378 14.1397 27.4378 10.6798C27.4378 8.04999 25.6641 6.08436 22.4438 6.08436C18.8055 6.08436 16.5335 8.79982 16.5335 11.8313C16.5335 12.8757 16.8443 13.6148 17.3266 14.1825C17.5463 14.445 17.5784 14.5521 17.498 14.852C17.4391 15.0716 17.3105 15.6019 17.2516 15.8161C17.1712 16.1214 16.9247 16.2285 16.6514 16.116C14.9743 15.4305 14.1919 13.5988 14.1919 11.5314C14.1919 8.12497 17.0694 4.03838 22.7706 4.03838C27.352 4.03838 30.3688 7.35371 30.3688 10.9101C30.3688 15.6179 27.7485 19.1314 23.8905 19.1314C22.5938 19.1314 21.3775 18.4298 20.9595 17.6371C20.9595 17.6371 20.2629 20.4008 20.1129 20.9364C19.8611 21.863 19.3627 22.7842 18.9073 23.5073C20.0121 23.833 21.1579 23.999 22.3098 24C28.9381 24 34.3125 18.628 34.3125 12.0027C34.3125 5.37737 28.9434 0 22.3152 0Z" fill="white"/>
</g>
<defs>
<clipPath id="clip0_2_635">
<rect width="25" height="24" fill="white" transform="translate(10)"/>
</clipPath>
</defs>
</svg>
