<svg width="46" height="21" viewBox="0 0 46 21" fill="none" xmlns="http://www.w3.org/2000/svg">
<g clip-path="url(#clip0_2_626)">
<path d="M35.4688 2.39942C34.5192 2.81199 33.5146 3.0838 32.4866 3.20626C33.567 2.57365 34.3794 1.56863 34.7716 0.379696C33.7502 0.976961 32.6346 1.39603 31.4725 1.61895C30.9832 1.10613 30.3947 0.698161 29.7428 0.419851C29.0909 0.14154 28.3892 -0.00130113 27.6804 8.93028e-06C24.8106 8.93028e-06 22.4882 2.28868 22.4882 5.10997C22.4861 5.5024 22.5311 5.89366 22.6221 6.2754C20.5643 6.17893 18.5492 5.65397 16.7059 4.73411C14.8625 3.81425 13.2315 2.51974 11.9171 0.933407C11.4559 1.71077 11.2121 2.59773 11.2109 3.50157C11.2109 5.27344 12.1354 6.83966 13.5312 7.75723C12.7042 7.73761 11.8942 7.51872 11.1698 7.11915V7.18243C11.1698 9.66094 12.9628 11.7229 15.3358 12.1922C14.8896 12.3112 14.4297 12.3714 13.9679 12.3715C13.6402 12.3721 13.3132 12.3403 12.9918 12.2766C13.6515 14.3068 15.5715 15.7834 17.846 15.8256C15.9978 17.2499 13.7288 18.0197 11.3955 18.0141C10.9813 18.0135 10.5676 17.9888 10.1562 17.9402C12.5299 19.4559 15.2891 20.2577 18.1054 20.25C27.6693 20.25 32.8943 12.4611 32.8943 5.70587C32.8943 5.48438 32.8885 5.2629 32.8779 5.04669C33.892 4.32531 34.7694 3.42886 35.4688 2.39942Z" fill="white"/>
</g>
<defs>
<clipPath id="clip0_2_626">
<rect width="26" height="21" fill="white" transform="translate(10)"/>
</clipPath>
</defs>
</svg>
